<mxfile host="app.diagrams.net" agent="Mozilla/5.0 (Windows NT 10.0; Win64; x64) AppleWebKit/537.36 (KHTML, like Gecko) Chrome/130.0.0.0 Safari/537.36" version="24.8.2">
  <diagram name="Page-1" id="xCzca-fbEk7-SdMN6r9x">
    <mxGraphModel dx="2345" dy="614" grid="1" gridSize="10" guides="1" tooltips="1" connect="1" arrows="1" fold="1" page="1" pageScale="1" pageWidth="827" pageHeight="1169" math="0" shadow="0">
      <root>
        <mxCell id="0" />
        <mxCell id="1" parent="0" />
        <mxCell id="Wbc0wrQuy2FuL3cFwNh8-31" style="edgeStyle=orthogonalEdgeStyle;rounded=0;orthogonalLoop=1;jettySize=auto;html=1;exitX=0.5;exitY=1;exitDx=0;exitDy=0;" edge="1" parent="1" source="Wbc0wrQuy2FuL3cFwNh8-1" target="Wbc0wrQuy2FuL3cFwNh8-3">
          <mxGeometry relative="1" as="geometry" />
        </mxCell>
        <mxCell id="Wbc0wrQuy2FuL3cFwNh8-33" style="edgeStyle=orthogonalEdgeStyle;rounded=0;orthogonalLoop=1;jettySize=auto;html=1;exitX=0.5;exitY=1;exitDx=0;exitDy=0;entryX=0.5;entryY=0;entryDx=0;entryDy=0;" edge="1" parent="1" source="Wbc0wrQuy2FuL3cFwNh8-1" target="Wbc0wrQuy2FuL3cFwNh8-32">
          <mxGeometry relative="1" as="geometry" />
        </mxCell>
        <mxCell id="Wbc0wrQuy2FuL3cFwNh8-1" value="KANO" style="rounded=0;whiteSpace=wrap;html=1;" vertex="1" parent="1">
          <mxGeometry x="380" y="60" width="120" height="60" as="geometry" />
        </mxCell>
        <mxCell id="Wbc0wrQuy2FuL3cFwNh8-2" style="edgeStyle=orthogonalEdgeStyle;rounded=0;orthogonalLoop=1;jettySize=auto;html=1;exitX=0.5;exitY=1;exitDx=0;exitDy=0;" edge="1" parent="1" source="Wbc0wrQuy2FuL3cFwNh8-1" target="Wbc0wrQuy2FuL3cFwNh8-1">
          <mxGeometry relative="1" as="geometry" />
        </mxCell>
        <mxCell id="Wbc0wrQuy2FuL3cFwNh8-5" value="" style="edgeStyle=orthogonalEdgeStyle;rounded=0;orthogonalLoop=1;jettySize=auto;html=1;entryX=0.5;entryY=0;entryDx=0;entryDy=0;exitX=0.5;exitY=1;exitDx=0;exitDy=0;" edge="1" parent="1" source="Wbc0wrQuy2FuL3cFwNh8-3" target="Wbc0wrQuy2FuL3cFwNh8-10">
          <mxGeometry relative="1" as="geometry" />
        </mxCell>
        <mxCell id="Wbc0wrQuy2FuL3cFwNh8-15" style="edgeStyle=orthogonalEdgeStyle;rounded=0;orthogonalLoop=1;jettySize=auto;html=1;exitX=0.5;exitY=1;exitDx=0;exitDy=0;entryX=0.5;entryY=0;entryDx=0;entryDy=0;" edge="1" parent="1" source="Wbc0wrQuy2FuL3cFwNh8-3" target="Wbc0wrQuy2FuL3cFwNh8-11">
          <mxGeometry relative="1" as="geometry" />
        </mxCell>
        <mxCell id="Wbc0wrQuy2FuL3cFwNh8-3" value="Research &amp;amp; Training" style="rounded=0;whiteSpace=wrap;html=1;" vertex="1" parent="1">
          <mxGeometry x="-90" y="180" width="120" height="60" as="geometry" />
        </mxCell>
        <mxCell id="Wbc0wrQuy2FuL3cFwNh8-4" value="Neural Networks" style="whiteSpace=wrap;html=1;rounded=0;" vertex="1" parent="1">
          <mxGeometry x="-155" y="370" width="120" height="60" as="geometry" />
        </mxCell>
        <mxCell id="Wbc0wrQuy2FuL3cFwNh8-6" value="Deep learning" style="whiteSpace=wrap;html=1;rounded=0;" vertex="1" parent="1">
          <mxGeometry x="-155" y="440" width="120" height="60" as="geometry" />
        </mxCell>
        <mxCell id="Wbc0wrQuy2FuL3cFwNh8-7" value="SER Tutorials" style="whiteSpace=wrap;html=1;rounded=0;" vertex="1" parent="1">
          <mxGeometry x="5" y="370" width="120" height="60" as="geometry" />
        </mxCell>
        <mxCell id="Wbc0wrQuy2FuL3cFwNh8-9" value="Resources Required" style="whiteSpace=wrap;html=1;rounded=0;" vertex="1" parent="1">
          <mxGeometry x="5" y="440" width="120" height="60" as="geometry" />
        </mxCell>
        <mxCell id="Wbc0wrQuy2FuL3cFwNh8-23" style="edgeStyle=orthogonalEdgeStyle;rounded=0;orthogonalLoop=1;jettySize=auto;html=1;exitX=0;exitY=0.5;exitDx=0;exitDy=0;entryX=0;entryY=0.5;entryDx=0;entryDy=0;" edge="1" parent="1" source="Wbc0wrQuy2FuL3cFwNh8-10" target="Wbc0wrQuy2FuL3cFwNh8-4">
          <mxGeometry relative="1" as="geometry" />
        </mxCell>
        <mxCell id="Wbc0wrQuy2FuL3cFwNh8-24" style="edgeStyle=orthogonalEdgeStyle;rounded=0;orthogonalLoop=1;jettySize=auto;html=1;exitX=0;exitY=0.5;exitDx=0;exitDy=0;entryX=0;entryY=0.5;entryDx=0;entryDy=0;" edge="1" parent="1" source="Wbc0wrQuy2FuL3cFwNh8-10" target="Wbc0wrQuy2FuL3cFwNh8-6">
          <mxGeometry relative="1" as="geometry" />
        </mxCell>
        <mxCell id="Wbc0wrQuy2FuL3cFwNh8-25" style="edgeStyle=orthogonalEdgeStyle;rounded=0;orthogonalLoop=1;jettySize=auto;html=1;exitX=0;exitY=0.5;exitDx=0;exitDy=0;entryX=0;entryY=0.5;entryDx=0;entryDy=0;" edge="1" parent="1" source="Wbc0wrQuy2FuL3cFwNh8-10" target="Wbc0wrQuy2FuL3cFwNh8-13">
          <mxGeometry relative="1" as="geometry" />
        </mxCell>
        <mxCell id="Wbc0wrQuy2FuL3cFwNh8-10" value="AI" style="rounded=0;whiteSpace=wrap;html=1;" vertex="1" parent="1">
          <mxGeometry x="-165" y="280" width="120" height="60" as="geometry" />
        </mxCell>
        <mxCell id="Wbc0wrQuy2FuL3cFwNh8-27" style="edgeStyle=orthogonalEdgeStyle;rounded=0;orthogonalLoop=1;jettySize=auto;html=1;exitX=0;exitY=0.5;exitDx=0;exitDy=0;entryX=0;entryY=0.5;entryDx=0;entryDy=0;" edge="1" parent="1" source="Wbc0wrQuy2FuL3cFwNh8-11" target="Wbc0wrQuy2FuL3cFwNh8-7">
          <mxGeometry relative="1" as="geometry" />
        </mxCell>
        <mxCell id="Wbc0wrQuy2FuL3cFwNh8-28" style="edgeStyle=orthogonalEdgeStyle;rounded=0;orthogonalLoop=1;jettySize=auto;html=1;exitX=0;exitY=0.5;exitDx=0;exitDy=0;entryX=0;entryY=0.5;entryDx=0;entryDy=0;" edge="1" parent="1" source="Wbc0wrQuy2FuL3cFwNh8-11" target="Wbc0wrQuy2FuL3cFwNh8-9">
          <mxGeometry relative="1" as="geometry" />
        </mxCell>
        <mxCell id="Wbc0wrQuy2FuL3cFwNh8-34" style="edgeStyle=orthogonalEdgeStyle;rounded=0;orthogonalLoop=1;jettySize=auto;html=1;exitX=0;exitY=0.5;exitDx=0;exitDy=0;entryX=0;entryY=0.5;entryDx=0;entryDy=0;" edge="1" parent="1" source="Wbc0wrQuy2FuL3cFwNh8-11" target="Wbc0wrQuy2FuL3cFwNh8-35">
          <mxGeometry relative="1" as="geometry">
            <mxPoint x="-15" y="500" as="targetPoint" />
          </mxGeometry>
        </mxCell>
        <mxCell id="Wbc0wrQuy2FuL3cFwNh8-11" value="SER Research" style="rounded=0;whiteSpace=wrap;html=1;" vertex="1" parent="1">
          <mxGeometry x="-5" y="280" width="120" height="60" as="geometry" />
        </mxCell>
        <mxCell id="Wbc0wrQuy2FuL3cFwNh8-29" style="edgeStyle=orthogonalEdgeStyle;rounded=0;orthogonalLoop=1;jettySize=auto;html=1;exitX=0;exitY=0.5;exitDx=0;exitDy=0;entryX=0;entryY=0.5;entryDx=0;entryDy=0;" edge="1" parent="1" target="Wbc0wrQuy2FuL3cFwNh8-8">
          <mxGeometry relative="1" as="geometry">
            <mxPoint x="80" y="310" as="sourcePoint" />
          </mxGeometry>
        </mxCell>
        <mxCell id="Wbc0wrQuy2FuL3cFwNh8-30" style="edgeStyle=orthogonalEdgeStyle;rounded=0;orthogonalLoop=1;jettySize=auto;html=1;exitX=0;exitY=0.5;exitDx=0;exitDy=0;entryX=0;entryY=0.5;entryDx=0;entryDy=0;" edge="1" parent="1" target="Wbc0wrQuy2FuL3cFwNh8-18">
          <mxGeometry relative="1" as="geometry">
            <mxPoint x="80" y="310" as="sourcePoint" />
          </mxGeometry>
        </mxCell>
        <mxCell id="Wbc0wrQuy2FuL3cFwNh8-13" value="Machine Learning" style="whiteSpace=wrap;html=1;rounded=0;" vertex="1" parent="1">
          <mxGeometry x="-155" y="510" width="120" height="60" as="geometry" />
        </mxCell>
        <mxCell id="Wbc0wrQuy2FuL3cFwNh8-32" value="MVP" style="rounded=0;whiteSpace=wrap;html=1;" vertex="1" parent="1">
          <mxGeometry x="340" y="180" width="120" height="60" as="geometry" />
        </mxCell>
        <mxCell id="Wbc0wrQuy2FuL3cFwNh8-35" value="Tutor Meetings" style="whiteSpace=wrap;html=1;rounded=0;" vertex="1" parent="1">
          <mxGeometry x="5" y="510" width="120" height="60" as="geometry" />
        </mxCell>
        <mxCell id="Wbc0wrQuy2FuL3cFwNh8-36" value="Tutorial Lead Prototyping with Kaggle Set" style="whiteSpace=wrap;html=1;rounded=0;" vertex="1" parent="1">
          <mxGeometry x="480" y="360" width="120" height="60" as="geometry" />
        </mxCell>
        <mxCell id="Wbc0wrQuy2FuL3cFwNh8-37" style="edgeStyle=orthogonalEdgeStyle;rounded=0;orthogonalLoop=1;jettySize=auto;html=1;exitX=0;exitY=0.5;exitDx=0;exitDy=0;entryX=0;entryY=0.5;entryDx=0;entryDy=0;" edge="1" parent="1" source="Wbc0wrQuy2FuL3cFwNh8-39" target="Wbc0wrQuy2FuL3cFwNh8-36">
          <mxGeometry relative="1" as="geometry" />
        </mxCell>
        <mxCell id="Wbc0wrQuy2FuL3cFwNh8-38" style="edgeStyle=orthogonalEdgeStyle;rounded=0;orthogonalLoop=1;jettySize=auto;html=1;exitX=0;exitY=0.5;exitDx=0;exitDy=0;entryX=0;entryY=0.5;entryDx=0;entryDy=0;" edge="1" parent="1" source="Wbc0wrQuy2FuL3cFwNh8-39" target="Wbc0wrQuy2FuL3cFwNh8-40">
          <mxGeometry relative="1" as="geometry" />
        </mxCell>
        <mxCell id="Wbc0wrQuy2FuL3cFwNh8-39" value="" style="rounded=0;whiteSpace=wrap;html=1;" vertex="1" parent="1">
          <mxGeometry x="470" y="270" width="120" height="60" as="geometry" />
        </mxCell>
        <mxCell id="Wbc0wrQuy2FuL3cFwNh8-40" value="Prototyping New Kaggle Set" style="whiteSpace=wrap;html=1;rounded=0;" vertex="1" parent="1">
          <mxGeometry x="480" y="430" width="120" height="60" as="geometry" />
        </mxCell>
      </root>
    </mxGraphModel>
  </diagram>
</mxfile>
